<mxfile host="Electron" modified="2024-08-16T10:33:51.924Z" agent="Mozilla/5.0 (Windows NT 10.0; Win64; x64) AppleWebKit/537.36 (KHTML, like Gecko) draw.io/21.6.1 Chrome/112.0.5615.204 Electron/24.6.1 Safari/537.36" etag="DZg_CxNYrvBx0Yy_NhH6" version="21.6.1" type="device">
  <diagram id="vNLIBaDfy6V9ff-0SzCh" name="Seite-1">
    <mxGraphModel dx="1356" dy="868" grid="1" gridSize="10" guides="1" tooltips="1" connect="1" arrows="1" fold="1" page="1" pageScale="1" pageWidth="827" pageHeight="1169" background="#FFFFFF" math="0" shadow="0">
      <root>
        <mxCell id="0" />
        <mxCell id="2" value="Layer 0" parent="0" />
        <mxCell id="3" value="&lt;div style=&quot;width: 93px; height: auto; word-break: break-word; font-size: 17px;&quot;&gt;&lt;div align=&quot;center&quot; style=&quot;font-size: 17px;&quot;&gt;&lt;span style=&quot;font-family: Arial; font-size: 17px; text-decoration: none; line-height: 0;&quot;&gt;&lt;span style=&quot;text-decoration: none; line-height: 14px; font-size: 17px;&quot; class=&quot;&quot;&gt;DVPD&lt;/span&gt;&lt;/span&gt;&lt;/div&gt;&lt;/div&gt;" style="shape=rect;shadow=0;strokeWidth=3;fillColor=#ffe6cc;strokeColor=#d79b00;opacity=100.0;html=1;nl2Br=0;verticalAlign=top;align=center;spacingLeft=2.0;spacingRight=0;whiteSpace=wrap;gliffyId=0;fontSize=17;fontStyle=1" parent="2" vertex="1">
          <mxGeometry x="200" y="160" width="700" height="190" as="geometry" />
        </mxCell>
        <mxCell id="4" value="&lt;div style=&quot;width: 169.8px;height:auto;word-break: break-word;&quot;&gt;&lt;div align=&quot;center&quot;&gt;&lt;font face=&quot;Arial&quot;&gt;(relation specific) field mappings to target tables&amp;nbsp;&lt;/font&gt;&lt;/div&gt;&lt;/div&gt;" style="shape=rect;shadow=0;strokeWidth=2;fillColor=#FFFFFF;strokeColor=#333333;opacity=100.0;html=1;nl2Br=0;verticalAlign=middle;align=center;spacingLeft=3.6;spacingRight=0;whiteSpace=wrap;gliffyId=5;" parent="2" vertex="1">
          <mxGeometry x="376.25" y="240" width="180" height="75" as="geometry" />
        </mxCell>
        <mxCell id="5" value="&lt;div style=&quot;width: 131.4px;height:auto;word-break: break-word;&quot;&gt;&lt;div align=&quot;center&quot;&gt;&lt;span style=&quot;font-family: Arial; font-size: 12px; line-height: 14px;&quot;&gt;list of fields, including properties for parsing every field from the source data&lt;/span&gt;&lt;/div&gt;&lt;/div&gt;" style="shape=rect;shadow=0;strokeWidth=2;fillColor=#FFFFFF;strokeColor=#3399FF;opacity=100.0;html=1;nl2Br=0;verticalAlign=middle;align=center;spacingLeft=2.8;spacingRight=0;whiteSpace=wrap;gliffyId=62;" parent="2" vertex="1">
          <mxGeometry x="236.25" y="240" width="140" height="75" as="geometry" />
        </mxCell>
        <mxCell id="6" value="&lt;div style=&quot;width: 141.0px;height:auto;word-break: break-word;&quot;&gt;&lt;div align=&quot;center&quot;&gt;&lt;span style=&quot;font-family: Arial; font-size: 12px; line-height: 14px;&quot;&gt;general properties for the&amp;nbsp; fetch and parse module&lt;/span&gt;&lt;/div&gt;&lt;/div&gt;" style="shape=rect;shadow=0;strokeWidth=2;fillColor=#FFFFFF;strokeColor=#3399FF;opacity=100.0;html=1;nl2Br=0;verticalAlign=middle;align=center;spacingLeft=3.0;spacingRight=0;whiteSpace=wrap;gliffyId=67;" parent="2" vertex="1">
          <mxGeometry x="236.25" y="170" width="150" height="50" as="geometry" />
        </mxCell>
        <mxCell id="7" value="&lt;div style=&quot;width: 169.8px;height:auto;word-break: break-word;&quot;&gt;&lt;div align=&quot;center&quot;&gt;&lt;font face=&quot;Arial&quot;&gt;Data Vault model tables with all stereotype specific declarations (Parent relation, key column names)&lt;/font&gt;&lt;/div&gt;&lt;/div&gt;" style="shape=rect;shadow=0;strokeWidth=2;fillColor=#FFFFFF;strokeColor=#333333;opacity=100.0;html=1;nl2Br=0;verticalAlign=middle;align=center;spacingLeft=3.6;spacingRight=0;whiteSpace=wrap;gliffyId=7;" parent="2" vertex="1">
          <mxGeometry x="647" y="240" width="180" height="75" as="geometry" />
        </mxCell>
        <mxCell id="8" value="&lt;div style=&quot;width: 169.8px;height:auto;word-break: break-word;&quot;&gt;&lt;div align=&quot;center&quot;&gt;&lt;font face=&quot;Arial&quot;&gt;Data Vault model tables with all columns (meta, hashes,content)&lt;/font&gt;&lt;/div&gt;&lt;/div&gt;" style="shape=rect;shadow=0;strokeWidth=2;fillColor=#d9ead3;strokeColor=#000000;opacity=100.0;html=1;nl2Br=0;verticalAlign=middle;align=center;spacingLeft=3.6;spacingRight=0;whiteSpace=wrap;gliffyId=13;" parent="2" vertex="1">
          <mxGeometry x="490" y="470" width="180" height="75" as="geometry" />
        </mxCell>
        <mxCell id="9" value="&lt;div style=&quot;width: 102.6px;height:auto;word-break: break-word;&quot;&gt;&lt;div align=&quot;center&quot;&gt;&lt;span style=&quot;font-family: Arial; font-size: 12px; line-height: 14px;&quot;&gt;Input for DDL generator&lt;span style=&quot;text-decoration: none; line-height: normal;&quot;&gt;&lt;br&gt;&lt;/span&gt;&lt;/span&gt;&lt;/div&gt;&lt;/div&gt;" style="shape=rect;shadow=0;strokeWidth=0;strokeColor=none;fillColor=#d9ead3;opacity=100.0;html=1;nl2Br=0;verticalAlign=middle;align=center;spacingLeft=2.2;spacingRight=0;whiteSpace=wrap;gliffyId=51;" parent="2" vertex="1">
          <mxGeometry x="200" y="855" width="110" height="30" as="geometry" />
        </mxCell>
        <mxCell id="10" value="&lt;div style=&quot;width: 102.6px;height:auto;word-break: break-word;&quot;&gt;&lt;div align=&quot;center&quot;&gt;&lt;span style=&quot;font-family: Arial; font-size: 12px; line-height: 14px;&quot;&gt;Input for Fetch/stage processing&lt;span style=&quot;text-decoration: none; line-height: normal;&quot;&gt;&lt;br&gt;&lt;/span&gt;&lt;/span&gt;&lt;/div&gt;&lt;/div&gt;" style="shape=rect;shadow=0;strokeWidth=2;fillColor=#FFFFFF;strokeColor=#3399FF;opacity=100.0;html=1;nl2Br=0;verticalAlign=middle;align=center;spacingLeft=2.2;spacingRight=0;whiteSpace=wrap;gliffyId=53;" parent="2" vertex="1">
          <mxGeometry x="200" y="895" width="110" height="50" as="geometry" />
        </mxCell>
        <mxCell id="11" value="&lt;div style=&quot;width: 966.6px;height:auto;word-break: break-word;&quot;&gt;&lt;div align=&quot;center&quot;&gt;&lt;span style=&quot;font-family: Arial; font-size: 20px; text-decoration: none; font-weight: bold; line-height: 0;&quot;&gt;&lt;span style=&quot;text-decoration: none; line-height: 22.75px;&quot;&gt;pipeline specifc&lt;/span&gt;&lt;/span&gt;&lt;/div&gt;&lt;/div&gt;" style="shape=rect;shadow=0;strokeWidth=0;strokeColor=none;fillColor=#d9d9d9;opacity=100.0;rotation=0;html=1;nl2Br=0;verticalAlign=middle;align=center;spacingLeft=0;spacingRight=0;whiteSpace=wrap;gliffyId=65;" parent="2" vertex="1">
          <mxGeometry x="200" y="70" width="700" height="75" as="geometry" />
        </mxCell>
        <mxCell id="12" value="&lt;div style=&quot;width: 102.6px;height:auto;word-break: break-word;&quot;&gt;&lt;div align=&quot;center&quot;&gt;&lt;span style=&quot;font-family: Arial; font-size: 12px; line-height: 14px;&quot;&gt;Input for loading into target table&lt;span style=&quot;text-decoration: none; line-height: normal;&quot;&gt;&lt;br&gt;&lt;/span&gt;&lt;/span&gt;&lt;/div&gt;&lt;/div&gt;" style="shape=rect;shadow=0;strokeWidth=2;fillColor=#FFFFFF;strokeColor=#CC0000;opacity=100.0;html=1;nl2Br=0;verticalAlign=middle;align=center;spacingLeft=2.2;spacingRight=0;whiteSpace=wrap;gliffyId=57;" parent="2" vertex="1">
          <mxGeometry x="200" y="955" width="110" height="30" as="geometry" />
        </mxCell>
        <mxCell id="13" value="&lt;div style=&quot;width: 169.8px;height:auto;word-break: break-word;&quot;&gt;&lt;div align=&quot;center&quot;&gt;&lt;span style=&quot;font-family: Arial; font-size: 12px; text-decoration: none; line-height: 0;&quot;&gt;&lt;span style=&quot;text-decoration: none; line-height: 14px;&quot;&gt;For every hash column: list of Data Vault table columns to use&lt;/span&gt;&lt;/span&gt;&lt;/div&gt;&lt;div align=&quot;center&quot;&gt;&lt;span style=&quot;font-family: Arial; font-size: 12px; text-decoration: none; line-height: 0;&quot;&gt;&lt;span style=&quot;text-decoration: none; line-height: 14px;&quot;&gt;(business keys, dependent child keys, satellite content)&lt;/span&gt;&lt;/span&gt;&lt;/div&gt;&lt;/div&gt;" style="shape=rect;shadow=0;strokeWidth=2;fillColor=#FFFFFF;strokeColor=#333333;opacity=100.0;html=1;nl2Br=0;verticalAlign=middle;align=center;spacingLeft=3.6;spacingRight=0;whiteSpace=wrap;gliffyId=17;" parent="2" vertex="1">
          <mxGeometry x="647" y="620" width="180" height="75" as="geometry" />
        </mxCell>
        <mxCell id="14" value="&lt;div style=&quot;width: 169.8px;height:auto;word-break: break-word;&quot;&gt;&lt;div align=&quot;center&quot;&gt;&lt;span style=&quot;font-family: Arial; font-size: 12px; text-decoration: none; line-height: 0;&quot;&gt;&lt;span style=&quot;text-decoration: none; line-height: 14px;&quot;&gt;List of necessary loading operations for every table depending on relation&lt;/span&gt;&lt;/span&gt;&lt;/div&gt;&lt;div align=&quot;center&quot;&gt;&lt;span style=&quot;font-family: Arial; font-size: 12px; text-decoration: none; line-height: 0;&quot;&gt;&lt;span style=&quot;text-decoration: none; line-height: 14px;&quot;&gt;declarations&lt;/span&gt;&lt;/span&gt;&lt;/div&gt;&lt;/div&gt;" style="shape=rect;shadow=0;strokeWidth=2;fillColor=#FFFFFF;strokeColor=#000000;opacity=100.0;html=1;nl2Br=0;verticalAlign=middle;align=center;spacingLeft=3.6;spacingRight=0;whiteSpace=wrap;gliffyId=24;" parent="2" vertex="1">
          <mxGeometry x="266.25" y="475" width="180" height="65" as="geometry" />
        </mxCell>
        <mxCell id="Gl26JLkWMYPqlJ2-tYro-34" style="edgeStyle=orthogonalEdgeStyle;shape=filledEdge;rounded=1;orthogonalLoop=1;jettySize=auto;html=1;entryX=0.25;entryY=0;entryDx=0;entryDy=0;labelBackgroundColor=default;strokeColor=#000000;strokeWidth=2;fontFamily=Helvetica;fontSize=11;fontColor=default;startArrow=none;startFill=0;endArrow=open;endFill=0;startSize=6;endSize=6;fillColor=none;" parent="2" source="15" target="16" edge="1">
          <mxGeometry relative="1" as="geometry" />
        </mxCell>
        <mxCell id="15" value="&lt;div style=&quot;width: 169.8px;height:auto;word-break: break-word;&quot;&gt;&lt;div align=&quot;center&quot;&gt;&lt;span style=&quot;font-family: Arial; font-size: 12px; text-decoration: none; line-height: 0;&quot;&gt;&lt;span style=&quot;text-decoration: none; line-height: 14px;&quot;&gt;For every table loading operation:&amp;nbsp;&lt;/span&gt;&lt;/span&gt;&lt;/div&gt;&lt;div align=&quot;center&quot;&gt;&lt;span style=&quot;font-family: Arial; font-size: 12px; text-decoration: none; line-height: 0;&quot;&gt;&lt;span style=&quot;text-decoration: none; line-height: 14px;&quot;&gt;Mapping of fields to Data Vault model column.&lt;/span&gt;&lt;/span&gt;&lt;/div&gt;&lt;/div&gt;" style="shape=rect;shadow=0;strokeWidth=2;fillColor=#FFFFFF;strokeColor=#CC0000;opacity=100.0;html=1;nl2Br=0;verticalAlign=middle;align=center;spacingLeft=3.6;spacingRight=0;whiteSpace=wrap;gliffyId=31;" parent="2" vertex="1">
          <mxGeometry x="351.25" y="775" width="230" height="80" as="geometry" />
        </mxCell>
        <mxCell id="16" value="&lt;div style=&quot;width: 208.2px;height:auto;word-break: break-word;&quot;&gt;&lt;div align=&quot;center&quot;&gt;&lt;span style=&quot;font-family: Arial; font-size: 12px; line-height: 14px;&quot;&gt;Stage table columns&lt;/span&gt;&lt;/div&gt;&lt;/div&gt;" style="shape=rect;shadow=0;strokeWidth=2;fillColor=#d9ead3;strokeColor=#3399FF;opacity=100.0;html=1;nl2Br=0;verticalAlign=middle;align=center;spacingLeft=4.4;spacingRight=0;whiteSpace=wrap;gliffyId=44;" parent="2" vertex="1">
          <mxGeometry x="500" y="910" width="220" height="75" as="geometry" />
        </mxCell>
        <mxCell id="Gl26JLkWMYPqlJ2-tYro-35" style="edgeStyle=orthogonalEdgeStyle;shape=filledEdge;rounded=1;orthogonalLoop=1;jettySize=auto;html=1;entryX=0.75;entryY=0;entryDx=0;entryDy=0;labelBackgroundColor=default;strokeColor=#000000;strokeWidth=2;fontFamily=Helvetica;fontSize=11;fontColor=default;startArrow=none;startFill=0;endArrow=open;endFill=0;startSize=6;endSize=6;fillColor=none;" parent="2" source="17" target="16" edge="1">
          <mxGeometry relative="1" as="geometry" />
        </mxCell>
        <mxCell id="17" value="&lt;div style=&quot;width: 169.8px;height:auto;word-break: break-word;&quot;&gt;&lt;div align=&quot;center&quot;&gt;&lt;font face=&quot;Arial&quot;&gt;For every table loading operation: List of all needed field composition for every hash&amp;nbsp;&lt;/font&gt;&lt;/div&gt;&lt;/div&gt;" style="shape=rect;shadow=0;strokeWidth=2;fillColor=#FFFFFF;strokeColor=#3399FF;opacity=100.0;html=1;nl2Br=0;verticalAlign=middle;align=center;spacingLeft=3.6;spacingRight=0;whiteSpace=wrap;gliffyId=48;" parent="2" vertex="1">
          <mxGeometry x="647" y="775" width="180" height="75" as="geometry" />
        </mxCell>
        <mxCell id="22" style="shape=filledEdge;strokeWidth=2;strokeColor=#000000;fillColor=none;startArrow=none;startFill=0;startSize=6;endArrow=open;endFill=0;endSize=6;rounded=1;gliffyId=15;edgeStyle=orthogonalEdgeStyle;" parent="2" source="7" target="8" edge="1">
          <mxGeometry width="5" height="192" relative="1" as="geometry">
            <Array as="points">
              <mxPoint x="737" y="380" />
              <mxPoint x="580" y="380" />
            </Array>
          </mxGeometry>
        </mxCell>
        <mxCell id="23" style="shape=filledEdge;strokeWidth=2;strokeColor=#000000;fillColor=none;startArrow=none;startFill=0;startSize=6;endArrow=open;endFill=0;endSize=6;rounded=1;gliffyId=16;edgeStyle=orthogonalEdgeStyle;" parent="2" source="4" target="8" edge="1">
          <mxGeometry width="5" height="192" relative="1" as="geometry">
            <Array as="points">
              <mxPoint x="466" y="380" />
              <mxPoint x="580" y="380" />
            </Array>
          </mxGeometry>
        </mxCell>
        <mxCell id="24" style="shape=filledEdge;strokeWidth=2;strokeColor=#000000;fillColor=none;startArrow=none;startFill=0;startSize=6;endArrow=open;endFill=0;endSize=6;rounded=1;gliffyId=19;edgeStyle=orthogonalEdgeStyle;" parent="2" source="8" target="13" edge="1">
          <mxGeometry width="5" height="192" relative="1" as="geometry">
            <Array as="points">
              <mxPoint x="580" y="570" />
              <mxPoint x="737" y="570" />
            </Array>
          </mxGeometry>
        </mxCell>
        <mxCell id="25" style="shape=filledEdge;strokeWidth=2;strokeColor=#000000;fillColor=none;startArrow=none;startFill=0;startSize=6;endArrow=open;endFill=0;endSize=6;rounded=1;gliffyId=20;edgeStyle=orthogonalEdgeStyle;" parent="2" source="7" target="13" edge="1">
          <mxGeometry width="5" height="192" relative="1" as="geometry">
            <Array as="points">
              <mxPoint x="737" y="470" />
              <mxPoint x="737" y="470" />
            </Array>
          </mxGeometry>
        </mxCell>
        <mxCell id="26" style="shape=filledEdge;strokeWidth=2;strokeColor=#000000;fillColor=none;startArrow=none;startFill=0;startSize=6;endArrow=open;endFill=0;endSize=6;rounded=1;gliffyId=27;edgeStyle=orthogonalEdgeStyle;" parent="2" source="4" target="14" edge="1">
          <mxGeometry width="5" height="192" relative="1" as="geometry">
            <Array as="points">
              <mxPoint x="466" y="380" />
              <mxPoint x="356" y="380" />
            </Array>
          </mxGeometry>
        </mxCell>
        <mxCell id="27" style="shape=filledEdge;strokeWidth=2;strokeColor=#000000;fillColor=none;startArrow=none;startFill=0;startSize=6;endArrow=open;endFill=0;endSize=6;rounded=1;gliffyId=29;edgeStyle=orthogonalEdgeStyle;" parent="2" source="7" target="14" edge="1">
          <mxGeometry width="5" height="192" relative="1" as="geometry">
            <Array as="points">
              <mxPoint x="737" y="410" />
              <mxPoint x="356" y="410" />
            </Array>
          </mxGeometry>
        </mxCell>
        <mxCell id="28" style="shape=filledEdge;strokeWidth=2;strokeColor=#000000;fillColor=none;startArrow=none;startFill=0;startSize=6;endArrow=open;endFill=0;endSize=6;rounded=1;gliffyId=33;edgeStyle=orthogonalEdgeStyle;" parent="2" source="14" target="15" edge="1">
          <mxGeometry width="5" height="192" relative="1" as="geometry">
            <Array as="points">
              <mxPoint x="356.25" y="575" />
              <mxPoint x="356.25" y="660" />
              <mxPoint x="466.25" y="660" />
              <mxPoint x="466.25" y="700" />
            </Array>
          </mxGeometry>
        </mxCell>
        <mxCell id="29" style="shape=filledEdge;strokeWidth=2;strokeColor=#000000;fillColor=none;startArrow=none;startFill=0;startSize=6;endArrow=open;endFill=0;endSize=6;rounded=1;gliffyId=35;edgeStyle=orthogonalEdgeStyle;" parent="2" source="4" target="15" edge="1">
          <mxGeometry width="5" height="192" relative="1" as="geometry">
            <Array as="points">
              <mxPoint x="466.25" y="390" />
              <mxPoint x="466.25" y="493.3467712402344" />
              <mxPoint x="466.25" y="596.6935424804688" />
              <mxPoint x="466.25" y="700.040283203125" />
            </Array>
          </mxGeometry>
        </mxCell>
        <mxCell id="30" style="shape=filledEdge;strokeWidth=2;strokeColor=#000000;fillColor=none;startArrow=none;startFill=0;startSize=6;endArrow=open;endFill=0;endSize=6;rounded=1;gliffyId=37;edgeStyle=orthogonalEdgeStyle;" parent="2" source="8" target="15" edge="1">
          <mxGeometry width="5" height="192" relative="1" as="geometry">
            <Array as="points">
              <mxPoint x="580" y="660" />
              <mxPoint x="466" y="660" />
            </Array>
          </mxGeometry>
        </mxCell>
        <mxCell id="32" style="shape=filledEdge;strokeWidth=2;strokeColor=#000000;fillColor=none;startArrow=none;startFill=0;startSize=6;endArrow=open;endFill=0;endSize=6;rounded=1;gliffyId=47;edgeStyle=orthogonalEdgeStyle;" parent="2" source="13" target="17" edge="1">
          <mxGeometry width="5" height="192" relative="1" as="geometry" />
        </mxCell>
        <mxCell id="NpN65zklDhgpVr-dGM9f-34" style="edgeStyle=orthogonalEdgeStyle;rounded=0;orthogonalLoop=1;jettySize=auto;html=1;entryX=1;entryY=0.25;entryDx=0;entryDy=0;endArrow=none;endFill=0;dashed=1;startArrow=open;startFill=0;strokeWidth=3;" parent="2" source="NpN65zklDhgpVr-dGM9f-33" target="3" edge="1">
          <mxGeometry relative="1" as="geometry">
            <Array as="points">
              <mxPoint x="970" y="208" />
            </Array>
          </mxGeometry>
        </mxCell>
        <mxCell id="NpN65zklDhgpVr-dGM9f-33" value="&lt;div style=&quot;width: 93.0px;height:auto;word-break: break-word;&quot;&gt;&lt;div align=&quot;center&quot;&gt;&lt;font face=&quot;Arial&quot;&gt;model profile&lt;/font&gt;&lt;/div&gt;&lt;/div&gt;" style="shape=rect;shadow=0;strokeWidth=3;fillColor=#FFFFFF;strokeColor=#000000;opacity=100.0;html=1;nl2Br=0;verticalAlign=middle;align=center;spacingLeft=2.0;spacingRight=0;whiteSpace=wrap;gliffyId=0;" parent="2" vertex="1">
          <mxGeometry x="920" y="400" width="100" height="75" as="geometry" />
        </mxCell>
        <mxCell id="5ljOtFP8lKzOFH9_YUSK-33" style="shape=filledEdge;strokeWidth=2;strokeColor=#000000;fillColor=none;startArrow=none;startFill=0;startSize=6;endArrow=open;endFill=0;endSize=6;rounded=1;gliffyId=11;edgeStyle=orthogonalEdgeStyle;entryX=0.5;entryY=0;entryDx=0;entryDy=0;" parent="2" source="NpN65zklDhgpVr-dGM9f-33" target="8" edge="1">
          <mxGeometry width="5" height="192" relative="1" as="geometry">
            <mxPoint x="476.25" y="245" as="sourcePoint" />
            <mxPoint x="646.25" y="530" as="targetPoint" />
          </mxGeometry>
        </mxCell>
        <mxCell id="5ljOtFP8lKzOFH9_YUSK-35" value="global" style="shape=rect;shadow=0;strokeWidth=0;strokeColor=none;fillColor=#d9d9d9;opacity=100.0;rotation=0;nl2Br=0;verticalAlign=middle;align=center;spacingLeft=0;spacingRight=0;gliffyId=65;fontSize=18;labelPosition=center;verticalLabelPosition=middle;" parent="2" vertex="1">
          <mxGeometry x="910" y="70" width="120" height="75" as="geometry" />
        </mxCell>
        <mxCell id="Gl26JLkWMYPqlJ2-tYro-33" style="shape=filledEdge;strokeWidth=2;strokeColor=#000000;fillColor=none;startArrow=none;startFill=0;startSize=6;endArrow=open;endFill=0;endSize=6;rounded=1;gliffyId=33;edgeStyle=orthogonalEdgeStyle;entryX=0.5;entryY=0;entryDx=0;entryDy=0;" parent="2" source="14" target="17" edge="1">
          <mxGeometry width="5" height="192" relative="1" as="geometry">
            <Array as="points">
              <mxPoint x="356" y="730" />
              <mxPoint x="737" y="730" />
            </Array>
            <mxPoint x="366" y="550" as="sourcePoint" />
            <mxPoint x="476" y="810" as="targetPoint" />
          </mxGeometry>
        </mxCell>
      </root>
    </mxGraphModel>
  </diagram>
</mxfile>
